<svg width="50" height="50" viewBox="0 0 50 50" fill="none" xmlns="http://www.w3.org/2000/svg">
<path fill-rule="evenodd" clip-rule="evenodd" d="M37.5 22.9167C37.5 30.9708 30.9708 37.5 22.9166 37.5C14.8625 37.5 8.33329 30.9708 8.33329 22.9167C8.33329 14.8625 14.8625 8.33334 22.9166 8.33334C30.9708 8.33334 37.5 14.8625 37.5 22.9167ZM37.5664 34.6202C40.1323 31.4125 41.6666 27.3438 41.6666 22.9167C41.6666 12.5613 33.272 4.16667 22.9166 4.16667C12.5613 4.16667 4.16663 12.5613 4.16663 22.9167C4.16663 33.272 12.5613 41.6667 22.9166 41.6667C27.3437 41.6667 31.4125 40.1324 34.6201 37.5665L40.1935 43.1398C41.0071 43.9534 42.3262 43.9534 43.1398 43.1398C43.9534 42.3262 43.9534 41.0071 43.1398 40.1935L37.5664 34.6202Z" fill="white"/>
</svg>
